{
    "asset" : {
        "generator" : "Khronos glTF Blender I/O v1.6.16",
        "version" : "2.0"
    },
    "scene" : 0,
    "scenes" : [
        {
            "name" : "Scene",
            "nodes" : [
                0,
                1,
                2,
                3,
                4,
                5,
                6,
                7
            ]
        }
    ],
    "nodes" : [
        {
            "mesh" : 0,
            "name" : "Cube"
        },
        {
            "mesh" : 1,
            "name" : "Cube.001",
            "translation" : [
                0,
                0.2473141849040985,
                0
            ]
        },
        {
            "mesh" : 2,
            "name" : "Plane",
            "translation" : [
                0,
                0.545802891254425,
                0
            ]
        },
        {
            "mesh" : 3,
            "name" : "Cube.002",
            "rotation" : [
                -1,
                0,
                0,
                7.549790126404332e-08
            ],
            "translation" : [
                0,
                1.160811185836792,
                0
            ]
        },
        {
            "mesh" : 4,
            "name" : "Cube.003",
            "translation" : [
                0,
                0.5747959613800049,
                0
            ]
        },
        {
            "mesh" : 5,
            "name" : "Plane.001",
            "translation" : [
                0,
                0.873284637928009,
                0
            ]
        },
        {
            "mesh" : 6,
            "name" : "Plane.002",
            "translation" : [
                0,
                0.5894671082496643,
                0
            ]
        },
        {
            "mesh" : 7,
            "name" : "Plane.003",
            "translation" : [
                0,
                0.9125824570655823,
                0
            ]
        }
    ],
    "materials" : [
        {
            "doubleSided" : true,
            "name" : "bunMaterial",
            "pbrMetallicRoughness" : {
                "baseColorFactor" : [
                    1,
                    0.5480920076370239,
                    0.15221254527568817,
                    1
                ],
                "metallicFactor" : 0,
                "roughnessFactor" : 0.5
            }
        },
        {
            "doubleSided" : true,
            "name" : "meatMaterial",
            "pbrMetallicRoughness" : {
                "baseColorFactor" : [
                    0.24285650253295898,
                    0.03110930509865284,
                    0.0010496239410713315,
                    1
                ],
                "metallicFactor" : 0,
                "roughnessFactor" : 0.5
            }
        },
        {
            "doubleSided" : true,
            "name" : "cheeseMaterial",
            "pbrMetallicRoughness" : {
                "baseColorFactor" : [
                    1,
                    0.9440906047821045,
                    0.19944244623184204,
                    1
                ],
                "metallicFactor" : 0,
                "roughnessFactor" : 0.5
            }
        },
        {
            "doubleSided" : true,
            "name" : "cheddarMaterial",
            "pbrMetallicRoughness" : {
                "baseColorFactor" : [
                    1,
                    0.2895619869232178,
                    0,
                    1
                ],
                "metallicFactor" : 0,
                "roughnessFactor" : 0.5
            }
        }
    ],
    "meshes" : [
        {
            "name" : "Cube.002",
            "primitives" : [
                {
                    "attributes" : {
                        "POSITION" : 0,
                        "NORMAL" : 1
                    },
                    "indices" : 2,
                    "material" : 0
                }
            ]
        },
        {
            "name" : "Cube.003",
            "primitives" : [
                {
                    "attributes" : {
                        "POSITION" : 3,
                        "NORMAL" : 4
                    },
                    "indices" : 2,
                    "material" : 1
                }
            ]
        },
        {
            "name" : "Plane.001",
            "primitives" : [
                {
                    "attributes" : {
                        "POSITION" : 5,
                        "NORMAL" : 6
                    },
                    "indices" : 7,
                    "material" : 2
                }
            ]
        },
        {
            "name" : "Cube.004",
            "primitives" : [
                {
                    "attributes" : {
                        "POSITION" : 8,
                        "NORMAL" : 9
                    },
                    "indices" : 2,
                    "material" : 0
                }
            ]
        },
        {
            "name" : "Cube.005",
            "primitives" : [
                {
                    "attributes" : {
                        "POSITION" : 10,
                        "NORMAL" : 11
                    },
                    "indices" : 2,
                    "material" : 1
                }
            ]
        },
        {
            "name" : "Plane.002",
            "primitives" : [
                {
                    "attributes" : {
                        "POSITION" : 12,
                        "NORMAL" : 13
                    },
                    "indices" : 14,
                    "material" : 2
                }
            ]
        },
        {
            "name" : "Plane.003",
            "primitives" : [
                {
                    "attributes" : {
                        "POSITION" : 15,
                        "NORMAL" : 16
                    },
                    "indices" : 17,
                    "material" : 3
                }
            ]
        },
        {
            "name" : "Plane.004",
            "primitives" : [
                {
                    "attributes" : {
                        "POSITION" : 18,
                        "NORMAL" : 19
                    },
                    "indices" : 20,
                    "material" : 3
                }
            ]
        }
    ],
    "accessors" : [
        {
            "bufferView" : 0,
            "componentType" : 5126,
            "count" : 3586,
            "max" : [
                0.9166668057441711,
                0.25528237223625183,
                0.9166667461395264
            ],
            "min" : [
                -0.9166668057441711,
                0.06140200421214104,
                -0.9166668057441711
            ],
            "type" : "VEC3"
        },
        {
            "bufferView" : 1,
            "componentType" : 5126,
            "count" : 3586,
            "type" : "VEC3"
        },
        {
            "bufferView" : 2,
            "componentType" : 5123,
            "count" : 21504,
            "type" : "SCALAR"
        },
        {
            "bufferView" : 3,
            "componentType" : 5126,
            "count" : 3586,
            "max" : [
                0.8392720222473145,
                0.2704295516014099,
                0.8392719626426697
            ],
            "min" : [
                -0.8392720818519592,
                0.008408569730818272,
                -0.8392720222473145
            ],
            "type" : "VEC3"
        },
        {
            "bufferView" : 4,
            "componentType" : 5126,
            "count" : 3586,
            "type" : "VEC3"
        },
        {
            "bufferView" : 5,
            "componentType" : 5126,
            "count" : 714,
            "max" : [
                0.7559175491333008,
                -0.001238783821463585,
                0.7559175491333008
            ],
            "min" : [
                -0.7559175491333008,
                -0.15372206270694733,
                -0.7559175491333008
            ],
            "type" : "VEC3"
        },
        {
            "bufferView" : 6,
            "componentType" : 5126,
            "count" : 714,
            "type" : "VEC3"
        },
        {
            "bufferView" : 7,
            "componentType" : 5123,
            "count" : 3456,
            "type" : "SCALAR"
        },
        {
            "bufferView" : 8,
            "componentType" : 5126,
            "count" : 3586,
            "max" : [
                0.9166666865348816,
                0.25528237223625183,
                0.9166667461395264
            ],
            "min" : [
                -0.9166666865348816,
                -0.17959895730018616,
                -0.9166666865348816
            ],
            "type" : "VEC3"
        },
        {
            "bufferView" : 9,
            "componentType" : 5126,
            "count" : 3586,
            "type" : "VEC3"
        },
        {
            "bufferView" : 10,
            "componentType" : 5126,
            "count" : 3586,
            "max" : [
                0.8392720222473145,
                0.2704295516014099,
                0.8392719626426697
            ],
            "min" : [
                -0.8392720818519592,
                0.008408569730818272,
                -0.8392720222473145
            ],
            "type" : "VEC3"
        },
        {
            "bufferView" : 11,
            "componentType" : 5126,
            "count" : 3586,
            "type" : "VEC3"
        },
        {
            "bufferView" : 12,
            "componentType" : 5126,
            "count" : 714,
            "max" : [
                1.0690289735794067,
                -0.001238783821463585,
                1.0690289735794067
            ],
            "min" : [
                -1.0690289735794067,
                -0.15372206270694733,
                -1.0690289735794067
            ],
            "type" : "VEC3"
        },
        {
            "bufferView" : 13,
            "componentType" : 5126,
            "count" : 714,
            "type" : "VEC3"
        },
        {
            "bufferView" : 14,
            "componentType" : 5123,
            "count" : 3456,
            "type" : "SCALAR"
        },
        {
            "bufferView" : 15,
            "componentType" : 5126,
            "count" : 714,
            "max" : [
                1.0045584440231323,
                -0.001238783821463585,
                1.0045584440231323
            ],
            "min" : [
                -1.0045584440231323,
                -0.15372206270694733,
                -1.0045584440231323
            ],
            "type" : "VEC3"
        },
        {
            "bufferView" : 16,
            "componentType" : 5126,
            "count" : 714,
            "type" : "VEC3"
        },
        {
            "bufferView" : 17,
            "componentType" : 5123,
            "count" : 3456,
            "type" : "SCALAR"
        },
        {
            "bufferView" : 18,
            "componentType" : 5126,
            "count" : 714,
            "max" : [
                0.9258062243461609,
                -0.001238783821463585,
                0.9258062243461609
            ],
            "min" : [
                -0.9258062243461609,
                -0.15372206270694733,
                -0.9258062243461609
            ],
            "type" : "VEC3"
        },
        {
            "bufferView" : 19,
            "componentType" : 5126,
            "count" : 714,
            "type" : "VEC3"
        },
        {
            "bufferView" : 20,
            "componentType" : 5123,
            "count" : 3456,
            "type" : "SCALAR"
        }
    ],
    "bufferViews" : [
        {
            "buffer" : 0,
            "byteLength" : 43032,
            "byteOffset" : 0
        },
        {
            "buffer" : 0,
            "byteLength" : 43032,
            "byteOffset" : 43032
        },
        {
            "buffer" : 0,
            "byteLength" : 43008,
            "byteOffset" : 86064
        },
        {
            "buffer" : 0,
            "byteLength" : 43032,
            "byteOffset" : 129072
        },
        {
            "buffer" : 0,
            "byteLength" : 43032,
            "byteOffset" : 172104
        },
        {
            "buffer" : 0,
            "byteLength" : 8568,
            "byteOffset" : 215136
        },
        {
            "buffer" : 0,
            "byteLength" : 8568,
            "byteOffset" : 223704
        },
        {
            "buffer" : 0,
            "byteLength" : 6912,
            "byteOffset" : 232272
        },
        {
            "buffer" : 0,
            "byteLength" : 43032,
            "byteOffset" : 239184
        },
        {
            "buffer" : 0,
            "byteLength" : 43032,
            "byteOffset" : 282216
        },
        {
            "buffer" : 0,
            "byteLength" : 43032,
            "byteOffset" : 325248
        },
        {
            "buffer" : 0,
            "byteLength" : 43032,
            "byteOffset" : 368280
        },
        {
            "buffer" : 0,
            "byteLength" : 8568,
            "byteOffset" : 411312
        },
        {
            "buffer" : 0,
            "byteLength" : 8568,
            "byteOffset" : 419880
        },
        {
            "buffer" : 0,
            "byteLength" : 6912,
            "byteOffset" : 428448
        },
        {
            "buffer" : 0,
            "byteLength" : 8568,
            "byteOffset" : 435360
        },
        {
            "buffer" : 0,
            "byteLength" : 8568,
            "byteOffset" : 443928
        },
        {
            "buffer" : 0,
            "byteLength" : 6912,
            "byteOffset" : 452496
        },
        {
            "buffer" : 0,
            "byteLength" : 8568,
            "byteOffset" : 459408
        },
        {
            "buffer" : 0,
            "byteLength" : 8568,
            "byteOffset" : 467976
        },
        {
            "buffer" : 0,
            "byteLength" : 6912,
            "byteOffset" : 476544
        }
    ],
    "buffers" : [
        {
            "byteLength" : 483456,
            "uri" : "data:application/octet-stream;base64,"
        }
    ]
}
